<?xml version="1.0" encoding="UTF-8"?>
<!DOCTYPE svg PUBLIC "-//W3C//DTD SVG 1.1//EN" "http://www.w3.org/Graphics/SVG/1.1/DTD/svg11.dtd">
<svg xmlns="http://www.w3.org/2000/svg" version="1.1" width="1000px" height="1000px" style="shape-rendering:geometricPrecision; text-rendering:geometricPrecision; image-rendering:optimizeQuality; fill-rule:evenodd; clip-rule:evenodd" xmlns:xlink="http://www.w3.org/1999/xlink">
<g><path style="opacity:0.995" fill="#943dab" d="M 551.5,88.5 C 551.631,89.3764 551.298,90.0431 550.5,90.5C 540.705,95.8 531.038,101.3 521.5,107C 520.663,108.011 520.33,109.178 520.5,110.5C 519.167,110.5 517.833,110.5 516.5,110.5C 520.298,108.264 520.464,105.598 517,102.5C 498.011,81.1692 475.511,76.3358 449.5,88C 422.386,106.189 415.386,130.356 428.5,160.5C 418.167,166.5 407.833,172.5 397.5,178.5C 396.778,178.082 396.278,177.416 396,176.5C 395.333,148.167 395.333,119.833 396,91.5C 398.883,86.9499 402.716,83.4499 407.5,81C 427.33,69.9194 446.997,58.586 466.5,47C 473.501,44.5454 480.168,45.212 486.5,49C 506.003,60.586 525.67,71.9194 545.5,83C 547.996,84.331 549.996,86.1644 551.5,88.5 Z"/></g>
<g><path style="opacity:1" fill="#fcfbfc" d="M 516.5,110.5 C 510.5,113.833 504.5,117.167 498.5,120.5C 495.403,117.584 492.069,114.75 488.5,112C 469.586,103.876 456.419,109.376 449,128.5C 447.813,135.379 448.979,141.713 452.5,147.5C 462.185,161.169 474.518,164.003 489.5,156C 492.835,153.471 495.835,150.637 498.5,147.5C 505.329,151.749 512.329,155.749 519.5,159.5C 519.611,160.117 519.944,160.617 520.5,161C 505.649,182.582 485.316,190.582 459.5,185C 446.29,180.27 435.956,172.104 428.5,160.5C 415.386,130.356 422.386,106.189 449.5,88C 475.511,76.3358 498.011,81.1692 517,102.5C 520.464,105.598 520.298,108.264 516.5,110.5 Z"/></g>
<g><path style="opacity:0.997" fill="#822d98" d="M 551.5,88.5 C 552.222,88.9175 552.722,89.5842 553,90.5C 553.83,120.003 553.664,149.336 552.5,178.5C 541.309,172.408 530.309,166.074 519.5,159.5C 512.329,155.749 505.329,151.749 498.5,147.5C 490.828,143.333 483.495,138.666 476.5,133.5C 483.536,128.649 490.869,124.316 498.5,120.5C 504.5,117.167 510.5,113.833 516.5,110.5C 517.833,110.5 519.167,110.5 520.5,110.5C 520.33,109.178 520.663,108.011 521.5,107C 531.038,101.3 540.705,95.8 550.5,90.5C 551.298,90.0431 551.631,89.3764 551.5,88.5 Z"/></g>
<g><path style="opacity:1" fill="#953eab" d="M 498.5,120.5 C 490.869,124.316 483.536,128.649 476.5,133.5C 468.164,137.665 460.164,142.332 452.5,147.5C 448.979,141.713 447.813,135.379 449,128.5C 456.419,109.376 469.586,103.876 488.5,112C 492.069,114.75 495.403,117.584 498.5,120.5 Z"/></g>
<g><path style="opacity:1" fill="#f7f2f9" d="M 528.5,142.5 C 529.404,141.791 529.737,140.791 529.5,139.5C 526.941,139.198 524.607,139.532 522.5,140.5C 521.539,142.265 521.205,144.265 521.5,146.5C 519.833,146.5 518.167,146.5 516.5,146.5C 516.833,144.5 517.167,142.5 517.5,140.5C 516.791,139.596 515.791,139.263 514.5,139.5C 514.5,138.167 514.5,136.833 514.5,135.5C 515.833,135.5 517.167,135.5 518.5,135.5C 518.674,133.139 519.007,130.806 519.5,128.5C 518.167,128.5 516.833,128.5 515.5,128.5C 515.5,126.833 515.5,125.167 515.5,123.5C 517.167,123.5 518.833,123.5 520.5,123.5C 520.833,121.5 521.167,119.5 521.5,117.5C 522.833,117.5 524.167,117.5 525.5,117.5C 525.5,119.5 525.5,121.5 525.5,123.5C 527.833,123.5 530.167,123.5 532.5,123.5C 532.338,121.473 532.505,119.473 533,117.5C 534.356,116.62 535.856,116.286 537.5,116.5C 537.5,118.833 537.5,121.167 537.5,123.5C 538.5,123.5 539.5,123.5 540.5,123.5C 540.5,125.167 540.5,126.833 540.5,128.5C 538.833,128.5 537.167,128.5 535.5,128.5C 535.682,130.591 535.348,132.591 534.5,134.5C 535.689,135.429 537.022,135.762 538.5,135.5C 538.5,136.833 538.5,138.167 538.5,139.5C 536.833,139.5 535.167,139.5 533.5,139.5C 533.326,141.861 532.993,144.194 532.5,146.5C 531.167,146.5 529.833,146.5 528.5,146.5C 528.5,145.167 528.5,143.833 528.5,142.5 Z"/></g>
<g><path style="opacity:1" fill="#c298cd" d="M 524.5,128.5 C 526.607,127.532 528.941,127.198 531.5,127.5C 531.784,129.415 531.451,131.081 530.5,132.5C 530.5,131.167 530.5,129.833 530.5,128.5C 528.5,128.5 526.5,128.5 524.5,128.5 Z"/></g>
<g><path style="opacity:1" fill="#84319a" d="M 524.5,128.5 C 526.5,128.5 528.5,128.5 530.5,128.5C 530.5,129.833 530.5,131.167 530.5,132.5C 530.5,133.5 530.5,134.5 530.5,135.5C 528.167,135.5 525.833,135.5 523.5,135.5C 523.198,132.941 523.532,130.607 524.5,128.5 Z"/></g>
<g><path style="opacity:1" fill="#68227a" d="M 476.5,133.5 C 483.495,138.666 490.828,143.333 498.5,147.5C 495.835,150.637 492.835,153.471 489.5,156C 474.518,164.003 462.185,161.169 452.5,147.5C 460.164,142.332 468.164,137.665 476.5,133.5 Z"/></g>
<g><path style="opacity:1" fill="#bd90c8" d="M 514.5,135.5 C 514.5,136.833 514.5,138.167 514.5,139.5C 515.791,139.263 516.791,139.596 517.5,140.5C 516.167,140.5 514.833,140.5 513.5,140.5C 513.216,138.585 513.549,136.919 514.5,135.5 Z"/></g>
<g><path style="opacity:1" fill="#bc8fc8" d="M 522.5,140.5 C 524.607,139.532 526.941,139.198 529.5,139.5C 529.737,140.791 529.404,141.791 528.5,142.5C 527.082,140.692 525.082,140.025 522.5,140.5 Z"/></g>
<g><path style="opacity:0.133" fill="#7e1214" d="M 183.5,149.5 C 182.729,152.846 182.062,156.346 181.5,160C 181.894,162.28 182.894,162.78 184.5,161.5C 184.598,163.553 183.931,165.22 182.5,166.5C 182.912,164.027 181.912,162.694 179.5,162.5C 181.452,158.071 181.785,153.571 180.5,149C 181.749,148.26 182.749,148.427 183.5,149.5 Z"/></g>
<g><path style="opacity:0.957" fill="#de1e20" d="M 183.5,149.5 C 184.162,153.466 184.495,157.466 184.5,161.5C 182.894,162.78 181.894,162.28 181.5,160C 182.062,156.346 182.729,152.846 183.5,149.5 Z"/></g>
<g><path style="opacity:0.314" fill="#6c1112" d="M 183.5,149.5 C 184.926,151.679 185.592,154.179 185.5,157C 185.492,158.707 185.158,160.207 184.5,161.5C 184.495,157.466 184.162,153.466 183.5,149.5 Z"/></g>
<g><path style="opacity:0.989" fill="#672179" d="M 519.5,159.5 C 530.309,166.074 541.309,172.408 552.5,178.5C 551.046,181.123 549.046,183.289 546.5,185C 526.004,196.414 505.67,208.081 485.5,220C 479.846,223.739 473.846,224.406 467.5,222C 445.167,209 422.833,196 400.5,183C 398.859,181.871 397.859,180.371 397.5,178.5C 407.833,172.5 418.167,166.5 428.5,160.5C 435.956,172.104 446.29,180.27 459.5,185C 485.316,190.582 505.649,182.582 520.5,161C 519.944,160.617 519.611,160.117 519.5,159.5 Z"/></g>
<g><path style="opacity:0.999" fill="#07b0ce" d="M 873.5,201.5 C 875.017,201.489 876.184,200.823 877,199.5C 878.188,200.563 878.688,201.897 878.5,203.5C 871.076,222.223 857.409,233.39 837.5,237C 818.848,239.753 801.848,235.753 786.5,225C 779.803,217.968 772.803,211.302 765.5,205C 745.469,192.492 728.302,195.659 714,214.5C 716.747,195.542 726.914,182.042 744.5,174C 769.621,165.021 792.621,168.687 813.5,185C 819.86,191.36 826.194,197.694 832.5,204C 846.81,211.984 860.477,211.151 873.5,201.5 Z"/></g>
<g><path style="opacity:0.012" fill="#6c0f10" d="M 177.5,172.5 C 177.5,174.5 176.5,175.5 174.5,175.5C 175.167,174.167 176.167,173.167 177.5,172.5 Z"/></g>
<g><path style="opacity:0.871" fill="#8d1416" d="M 188.5,177.5 C 189.463,176.637 189.463,175.97 188.5,175.5C 187.264,176.246 185.93,176.579 184.5,176.5C 187.812,174.275 191.478,172.608 195.5,171.5C 196.711,172.274 196.711,173.107 195.5,174C 193.114,175.193 190.78,176.36 188.5,177.5 Z"/></g>
<g><path style="opacity:0.012" fill="#570c0f" d="M 170.5,179.5 C 170.027,180.906 169.027,181.573 167.5,181.5C 167.973,180.094 168.973,179.427 170.5,179.5 Z"/></g>
<g><path style="opacity:1" fill="#b0191a" d="M 188.5,177.5 C 183.758,180.91 180.091,185.243 177.5,190.5C 177.846,191.849 178.179,193.183 178.5,194.5C 177.883,194.389 177.383,194.056 177,193.5C 176.259,190.438 176.425,187.438 177.5,184.5C 176.675,183.614 175.675,183.281 174.5,183.5C 177.125,180.185 180.458,177.851 184.5,176.5C 185.93,176.579 187.264,176.246 188.5,175.5C 189.463,175.97 189.463,176.637 188.5,177.5 Z"/></g>
<g><path style="opacity:1" fill="#cd1c1e" d="M 179.5,162.5 C 181.912,162.694 182.912,164.027 182.5,166.5C 181.557,169.109 179.89,171.109 177.5,172.5C 176.167,173.167 175.167,174.167 174.5,175.5C 173.5,177.167 172.167,178.5 170.5,179.5C 168.973,179.427 167.973,180.094 167.5,181.5C 165.588,183.657 163.921,185.991 162.5,188.5C 161.883,188.611 161.383,188.944 161,189.5C 160.833,191 160.667,192.5 160.5,194C 160.336,196.544 161.003,198.71 162.5,200.5C 163.602,204.4 162.602,205.067 159.5,202.5C 153.276,197.489 152.109,191.489 156,184.5C 164.057,177.272 171.89,169.939 179.5,162.5 Z"/></g>
<g><path style="opacity:1" fill="#dc1e20" d="M 174.5,183.5 C 175.675,183.281 176.675,183.614 177.5,184.5C 176.425,187.438 176.259,190.438 177,193.5C 177.383,194.056 177.883,194.389 178.5,194.5C 179.6,195.605 180.267,196.938 180.5,198.5C 183.42,202.689 183.087,206.523 179.5,210C 180.252,210.671 180.586,211.504 180.5,212.5C 180.5,213.167 180.167,213.5 179.5,213.5C 177.94,211.844 176.94,209.844 176.5,207.5C 176.167,206.833 175.833,206.167 175.5,205.5C 175.249,203.83 174.582,202.33 173.5,201C 174.236,198.979 173.403,197.479 171,196.5C 170.366,193.445 170.532,190.445 171.5,187.5C 171.738,185.596 172.738,184.262 174.5,183.5 Z"/></g>
<g><path style="opacity:0.325" fill="#630e10" d="M 162.5,188.5 C 161.257,192.484 161.257,196.484 162.5,200.5C 161.003,198.71 160.336,196.544 160.5,194C 160.667,192.5 160.833,191 161,189.5C 161.383,188.944 161.883,188.611 162.5,188.5 Z"/></g>
<g><path style="opacity:1" fill="#07839a" d="M 878.5,203.5 C 878.688,201.897 878.188,200.563 877,199.5C 876.184,200.823 875.017,201.489 873.5,201.5C 876.144,198.52 878.811,195.52 881.5,192.5C 881.952,196.488 880.952,200.155 878.5,203.5 Z"/></g>
<g><path style="opacity:0.967" fill="#901416" d="M 171.5,187.5 C 170.532,190.445 170.366,193.445 171,196.5C 173.403,197.479 174.236,198.979 173.5,201C 174.582,202.33 175.249,203.83 175.5,205.5C 170.271,201.019 168.438,195.352 170,188.5C 170.383,187.944 170.883,187.611 171.5,187.5 Z"/></g>
<g><path style="opacity:0.765" fill="#9a1617" d="M 180.5,198.5 C 185.726,203.087 185.726,207.753 180.5,212.5C 180.586,211.504 180.252,210.671 179.5,210C 183.087,206.523 183.42,202.689 180.5,198.5 Z"/></g>
<g><path style="opacity:0.769" fill="#9e1718" d="M 162.5,200.5 C 164.821,203.796 167.154,207.129 169.5,210.5C 169.5,211.5 169.5,212.5 169.5,213.5C 165.434,210.437 162.101,206.771 159.5,202.5C 162.602,205.067 163.602,204.4 162.5,200.5 Z"/></g>
<g><path style="opacity:0.169" fill="#2b0806" d="M 169.5,210.5 C 171.557,212.043 171.557,213.043 169.5,213.5C 169.5,212.5 169.5,211.5 169.5,210.5 Z"/></g>
<g><path style="opacity:0.588" fill="#700f12" d="M 176.5,207.5 C 176.94,209.844 177.94,211.844 179.5,213.5C 178.116,216.195 176.116,217.195 173.5,216.5C 176.077,214.08 177.077,211.08 176.5,207.5 Z"/></g>
<g><path style="opacity:1" fill="#0b5790" d="M 198.5,211.5 C 203.121,210.993 207.454,211.826 211.5,214C 215.78,220.171 214.78,225.504 208.5,230C 204.19,232.549 199.69,234.715 195,236.5C 194.251,235.365 194.417,234.365 195.5,233.5C 201.638,231.033 205.638,226.699 207.5,220.5C 206.133,214.684 202.633,213.018 197,215.5C 196.7,213.934 197.2,212.601 198.5,211.5 Z"/></g>
<g><path style="opacity:0.982" fill="#0b5993" d="M 154.5,211.5 C 156.048,211.821 156.715,212.821 156.5,214.5C 153.053,214.814 149.72,215.648 146.5,217C 145.167,217.667 145.167,218.333 146.5,219C 162.466,220.204 178.299,219.37 194,216.5C 195.257,216.85 195.591,217.517 195,218.5C 193.391,219.147 191.891,219.98 190.5,221C 172.171,225.291 153.837,225.457 135.5,221.5C 135.238,220.022 135.571,218.689 136.5,217.5C 142.415,214.864 148.415,212.864 154.5,211.5 Z"/></g>
<g><path style="opacity:0.492" fill="#094d7f" d="M 187.5,230.5 C 177.221,232.114 166.888,232.614 156.5,232C 152.674,232.242 150.007,230.742 148.5,227.5C 149.635,225.912 150.969,225.579 152.5,226.5C 152.023,227.478 151.357,228.311 150.5,229C 162.04,232.247 173.54,232.081 185,228.5C 185.995,229.066 186.828,229.733 187.5,230.5 Z"/></g>
<g><path style="opacity:0.987" fill="#0d6cb4" d="M 148.5,227.5 C 150.007,230.742 152.674,232.242 156.5,232C 166.888,232.614 177.221,232.114 187.5,230.5C 188.167,230.5 188.5,230.833 188.5,231.5C 184.89,233.574 180.89,234.741 176.5,235C 169.174,235.5 161.841,235.666 154.5,235.5C 150.923,235.795 147.757,234.795 145,232.5C 144.36,229.632 145.527,227.965 148.5,227.5 Z"/></g>
<g><path style="opacity:0.517" fill="#094978" d="M 188.5,231.5 C 190.705,231.846 190.872,232.513 189,233.5C 177.491,236.498 165.991,237.165 154.5,235.5C 161.841,235.666 169.174,235.5 176.5,235C 180.89,234.741 184.89,233.574 188.5,231.5 Z"/></g>
<g><path style="opacity:0.999" fill="#07afcd" d="M 704.5,236.5 C 725.002,234.282 743.002,239.782 758.5,253C 764.5,259 770.5,265 776.5,271C 796.242,280.973 812.742,277.139 826,259.5C 819.562,289.085 801.062,304.419 770.5,305.5C 757.105,304.979 744.772,301.145 733.5,294C 725.5,286.667 717.5,279.333 709.5,272C 689.555,259.471 672.555,262.637 658.5,281.5C 660.064,268.219 666.064,257.052 676.5,248C 684.997,241.896 694.331,238.063 704.5,236.5 Z"/></g>
<g><path style="opacity:0.997" fill="#0b61a1" d="M 152.5,238.5 C 154.549,238.706 154.883,239.539 153.5,241C 162.444,242.83 171.444,242.997 180.5,241.5C 183.739,241.786 186.406,243.119 188.5,245.5C 185.07,247.366 181.403,248.532 177.5,249C 170.833,249.667 164.167,249.667 157.5,249C 154.376,248.521 151.543,247.354 149,245.5C 148.176,242.16 149.343,239.827 152.5,238.5 Z"/></g>
<g><path style="opacity:1" fill="#0b5a95" d="M 185.5,255.5 C 184.486,256.765 182.986,257.431 181,257.5C 166.38,259.116 151.88,258.449 137.5,255.5C 135.556,256.189 133.556,256.689 131.5,257C 134,257.5 136.5,258 139,258.5C 140.376,258.684 141.209,259.351 141.5,260.5C 136.447,259.751 131.447,258.584 126.5,257C 125.14,255.062 125.473,253.396 127.5,252C 133.055,248.275 139.055,247.109 145.5,248.5C 141.615,249.55 137.948,251.05 134.5,253C 136.392,253.973 138.392,254.64 140.5,255C 155.511,256.72 170.511,256.887 185.5,255.5 Z"/></g>
<g><path style="opacity:0.725" fill="#0a558c" d="M 187.5,259.5 C 189.562,258.224 191.896,257.39 194.5,257C 191.635,256.817 188.969,256.317 186.5,255.5C 193.611,255.713 200.277,254.213 206.5,251C 205.289,250.107 205.289,249.274 206.5,248.5C 208.384,249.693 208.884,251.359 208,253.5C 201.614,256.972 194.781,258.972 187.5,259.5 Z"/></g>
<g><path style="opacity:1" fill="#0d72bc" d="M 185.5,255.5 C 185.833,255.5 186.167,255.5 186.5,255.5C 188.969,256.317 191.635,256.817 194.5,257C 191.896,257.39 189.562,258.224 187.5,259.5C 186.833,259.833 186.167,260.167 185.5,260.5C 171.167,259.167 156.833,259.167 142.5,260.5C 142.167,260.5 141.833,260.5 141.5,260.5C 141.209,259.351 140.376,258.684 139,258.5C 136.5,258 134,257.5 131.5,257C 133.556,256.689 135.556,256.189 137.5,255.5C 151.88,258.449 166.38,259.116 181,257.5C 182.986,257.431 184.486,256.765 185.5,255.5 Z"/></g>
<g><path style="opacity:0.459" fill="#094877" d="M 204.5,262.5 C 205.6,261.442 206.934,260.608 208.5,260C 207.552,259.517 206.552,259.351 205.5,259.5C 208.405,258.372 211.072,256.705 213.5,254.5C 214.725,256.843 214.059,258.677 211.5,260C 209.35,261.411 207.016,262.245 204.5,262.5 Z"/></g>
<g><path style="opacity:0.796" fill="#0a5287" d="M 142.5,260.5 C 156.833,259.167 171.167,259.167 185.5,260.5C 171.168,261.8 156.834,261.8 142.5,260.5 Z"/></g>
<g><path style="opacity:0.486" fill="#093e66" d="M 177.5,263.5 C 169.677,264.329 161.677,264.829 153.5,265C 155.058,265.21 156.391,265.71 157.5,266.5C 152.146,266.284 146.979,265.284 142,263.5C 141.312,262.668 141.479,262.002 142.5,261.5C 154.07,263.3 165.737,263.966 177.5,263.5 Z"/></g>
<g><path style="opacity:0.992" fill="#0c68ab" d="M 205.5,259.5 C 206.552,259.351 207.552,259.517 208.5,260C 206.934,260.608 205.6,261.442 204.5,262.5C 189.444,264.757 174.444,266.09 159.5,266.5C 158.833,266.5 158.167,266.5 157.5,266.5C 156.391,265.71 155.058,265.21 153.5,265C 161.677,264.829 169.677,264.329 177.5,263.5C 186.934,262.816 196.267,261.483 205.5,259.5 Z"/></g>
<g><path style="opacity:0.584" fill="#094978" d="M 204.5,262.5 C 199.818,264.474 194.818,265.641 189.5,266C 179.506,266.5 169.506,266.666 159.5,266.5C 174.444,266.09 189.444,264.757 204.5,262.5 Z"/></g>
<g><path style="opacity:0.843" fill="#a41718" d="M 134.5,314.5 C 134.5,301.167 134.5,287.833 134.5,274.5C 133.167,274.5 131.833,274.5 130.5,274.5C 130.667,286.505 130.5,298.505 130,310.5C 129.617,311.056 129.117,311.389 128.5,311.5C 128.5,298.833 128.5,286.167 128.5,273.5C 131.167,273.5 133.833,273.5 136.5,273.5C 136.667,285.838 136.5,298.171 136,310.5C 135.79,312.058 135.29,313.391 134.5,314.5 Z"/></g>
<g><path style="opacity:1" fill="#de1e20" d="M 134.5,314.5 C 132.585,318.272 129.585,320.106 125.5,320C 124.944,319.617 124.611,319.117 124.5,318.5C 126.192,316.795 127.525,314.795 128.5,312.5C 128.5,312.167 128.5,311.833 128.5,311.5C 129.117,311.389 129.617,311.056 130,310.5C 130.5,298.505 130.667,286.505 130.5,274.5C 131.833,274.5 133.167,274.5 134.5,274.5C 134.5,287.833 134.5,301.167 134.5,314.5 Z"/></g>
<g><path style="opacity:0.373" fill="#8a1314" d="M 160.5,287.5 C 158.99,286.164 157.323,284.997 155.5,284C 151.152,283.585 146.819,283.751 142.5,284.5C 143.263,283.732 144.263,283.232 145.5,283C 149.167,282.333 152.833,282.333 156.5,283C 158.751,283.748 160.084,285.248 160.5,287.5 Z"/></g>
<g><path style="opacity:0.039" fill="#911516" d="M 186.5,290.5 C 186.5,288.167 186.5,285.833 186.5,283.5C 184.856,283.286 183.356,283.62 182,284.5C 181.809,286.708 181.309,288.708 180.5,290.5C 178.833,283.5 181.5,280.833 188.5,282.5C 188.198,285.373 187.531,288.039 186.5,290.5 Z"/></g>
<g><path style="opacity:0.989" fill="#b5191b" d="M 209.5,285.5 C 206.823,284.386 204.156,284.386 201.5,285.5C 202.77,286.288 203.77,287.288 204.5,288.5C 200.454,287.501 196.454,287.834 192.5,289.5C 191.042,287.862 190.708,286.195 191.5,284.5C 196.342,282.59 201.342,282.09 206.5,283C 207.942,283.377 208.942,284.21 209.5,285.5 Z"/></g>
<g><path style="opacity:0.533" fill="#680e10" d="M 211.5,286.5 C 211.238,285.022 211.571,283.689 212.5,282.5C 213.72,283.711 214.887,283.711 216,282.5C 216.49,283.793 216.657,285.127 216.5,286.5C 214.833,286.5 213.167,286.5 211.5,286.5 Z"/></g>
<g><path style="opacity:0.698" fill="#8d1315" d="M 142.5,284.5 C 140.863,286.124 141.197,287.124 143.5,287.5C 145.307,287.028 147.14,286.694 149,286.5C 151.008,286.307 152.508,286.974 153.5,288.5C 149.145,287.661 144.812,287.994 140.5,289.5C 140.077,287.219 140.744,285.552 142.5,284.5 Z"/></g>
<g><path style="opacity:0.345" fill="#671011" d="M 164.5,286.5 C 166.919,291.147 168.586,296.147 169.5,301.5C 167.081,296.853 165.414,291.853 164.5,286.5 Z"/></g>
<g><path style="opacity:0.279" fill="#a01618" d="M 160.5,287.5 C 161.492,295.316 161.826,303.316 161.5,311.5C 158.583,311.635 155.916,310.968 153.5,309.5C 155.649,306.666 156.649,306.999 156.5,310.5C 157.833,310.5 159.167,310.5 160.5,310.5C 160.5,302.833 160.5,295.167 160.5,287.5 Z"/></g>
<g><path style="opacity:0.039" fill="#b2191b" d="M 210.5,286.5 C 210.833,286.5 211.167,286.5 211.5,286.5C 212.075,291.132 212.408,295.799 212.5,300.5C 212.489,304.565 211.822,308.232 210.5,311.5C 210.5,303.167 210.5,294.833 210.5,286.5 Z"/></g>
<g><path style="opacity:0.427" fill="#751113" d="M 186.5,290.5 C 186.59,293.152 185.924,295.485 184.5,297.5C 184.41,294.848 185.076,292.515 186.5,290.5 Z"/></g>
<g><path style="opacity:0.004" fill="#540b0e" d="M 184.5,297.5 C 184.741,299.898 184.074,301.898 182.5,303.5C 182.595,301.214 183.262,299.214 184.5,297.5 Z"/></g>
<g><path style="opacity:0.961" fill="#af181a" d="M 205.5,293.5 C 203.342,295.22 200.675,296.053 197.5,296C 200.278,297.392 203.278,297.892 206.5,297.5C 206.802,300.059 206.468,302.393 205.5,304.5C 205.5,302.5 205.5,300.5 205.5,298.5C 198.386,297.319 195.72,299.985 197.5,306.5C 195.414,305.852 194.414,304.352 194.5,302C 194.945,300.553 195.612,299.22 196.5,298C 196.167,297.5 195.833,297 195.5,296.5C 194.583,297.127 193.583,297.461 192.5,297.5C 196.097,294.192 200.431,292.859 205.5,293.5 Z"/></g>
<g><path style="opacity:1" fill="#d41d1f" d="M 172.5,290.5 C 173.22,295.328 174.553,299.995 176.5,304.5C 177.386,303.675 177.719,302.675 177.5,301.5C 177.926,297.573 178.926,293.907 180.5,290.5C 181.309,288.708 181.809,286.708 182,284.5C 183.356,283.62 184.856,283.286 186.5,283.5C 186.5,285.833 186.5,288.167 186.5,290.5C 185.076,292.515 184.41,294.848 184.5,297.5C 183.262,299.214 182.595,301.214 182.5,303.5C 182.245,310.747 178.579,313.413 171.5,311.5C 170.626,308.211 169.959,304.877 169.5,301.5C 168.586,296.147 166.919,291.147 164.5,286.5C 163.766,285.292 163.433,283.959 163.5,282.5C 165.857,282.337 168.19,282.503 170.5,283C 171.554,285.382 172.221,287.882 172.5,290.5 Z"/></g>
<g><path style="opacity:0.682" fill="#731112" d="M 172.5,290.5 C 173.973,294.251 175.64,297.917 177.5,301.5C 177.719,302.675 177.386,303.675 176.5,304.5C 174.553,299.995 173.22,295.328 172.5,290.5 Z"/></g>
<g><path style="opacity:0.802" fill="#7c1315" d="M 143.5,296.5 C 140.31,300.329 139.643,304.662 141.5,309.5C 138.297,306.317 137.797,302.65 140,298.5C 140.816,297.177 141.983,296.511 143.5,296.5 Z"/></g>
<g><path style="opacity:0.373" fill="#620d0f" d="M 191.5,298.5 C 190.701,301.43 190.368,304.43 190.5,307.5C 189.366,305.034 189.199,302.367 190,299.5C 190.383,298.944 190.883,298.611 191.5,298.5 Z"/></g>
<g><path style="opacity:0.985" fill="#db1e20" d="M 160.5,287.5 C 160.5,295.167 160.5,302.833 160.5,310.5C 159.167,310.5 157.833,310.5 156.5,310.5C 156.649,306.999 155.649,306.666 153.5,309.5C 149.5,310.833 145.5,310.833 141.5,309.5C 139.643,304.662 140.31,300.329 143.5,296.5C 146.686,294.126 150.353,293.126 154.5,293.5C 154.634,291.708 154.301,290.042 153.5,288.5C 152.508,286.974 151.008,286.307 149,286.5C 147.14,286.694 145.307,287.028 143.5,287.5C 141.197,287.124 140.863,286.124 142.5,284.5C 146.819,283.751 151.152,283.585 155.5,284C 157.323,284.997 158.99,286.164 160.5,287.5 Z M 153.5,305.5 C 148.969,307.71 146.302,306.377 145.5,301.5C 147.997,299.129 150.997,298.129 154.5,298.5C 154.702,300.95 154.369,303.283 153.5,305.5 Z"/></g>
<g><path style="opacity:0.745" fill="#9a1517" d="M 145.5,301.5 C 146.302,306.377 148.969,307.71 153.5,305.5C 153.389,306.117 153.056,306.617 152.5,307C 146.746,308.72 144.413,306.887 145.5,301.5 Z"/></g>
<g><path style="opacity:1" fill="#d91e20" d="M 209.5,285.5 C 210.167,285.5 210.5,285.833 210.5,286.5C 210.5,294.833 210.5,303.167 210.5,311.5C 209.167,311.5 207.833,311.5 206.5,311.5C 206.649,310.448 206.483,309.448 206,308.5C 205.184,309.823 204.017,310.489 202.5,310.5C 199.098,310.658 195.764,310.324 192.5,309.5C 191.167,309.5 190.5,308.833 190.5,307.5C 190.368,304.43 190.701,301.43 191.5,298.5C 191.5,297.833 191.833,297.5 192.5,297.5C 193.583,297.461 194.583,297.127 195.5,296.5C 195.833,297 196.167,297.5 196.5,298C 195.612,299.22 194.945,300.553 194.5,302C 194.414,304.352 195.414,305.852 197.5,306.5C 200.327,306.416 202.994,305.75 205.5,304.5C 206.468,302.393 206.802,300.059 206.5,297.5C 203.278,297.892 200.278,297.392 197.5,296C 200.675,296.053 203.342,295.22 205.5,293.5C 205.371,291.784 205.038,290.117 204.5,288.5C 203.77,287.288 202.77,286.288 201.5,285.5C 204.156,284.386 206.823,284.386 209.5,285.5 Z M 205.5,304.5 C 202.994,305.75 200.327,306.416 197.5,306.5C 195.72,299.985 198.386,297.319 205.5,298.5C 205.5,300.5 205.5,302.5 205.5,304.5 Z"/></g>
<g><path style="opacity:0.145" fill="#841214" d="M 141.5,309.5 C 145.5,310.833 149.5,310.833 153.5,309.5C 153.389,310.117 153.056,310.617 152.5,311C 149.167,311.667 145.833,311.667 142.5,311C 141.944,310.617 141.611,310.117 141.5,309.5 Z"/></g>
<g><path style="opacity:0.235" fill="#871314" d="M 192.5,309.5 C 195.764,310.324 199.098,310.658 202.5,310.5C 199.696,311.638 196.696,311.805 193.5,311C 192.944,310.617 192.611,310.117 192.5,309.5 Z"/></g>
<g><path style="opacity:0.565" fill="#7a1113" d="M 128.5,312.5 C 127.525,314.795 126.192,316.795 124.5,318.5C 123.903,318.265 123.57,317.765 123.5,317C 125.017,315.316 126.683,313.816 128.5,312.5 Z"/></g>
<g><path style="opacity:1" fill="#020202" d="M 648.5,356.5 C 649.833,356.5 651.167,356.5 652.5,356.5C 652.833,373.846 652.5,391.179 651.5,408.5C 635.109,417.023 619.109,426.023 603.5,435.5C 622.88,447.858 642.88,459.192 663.5,469.5C 682.96,459.201 702.293,448.701 721.5,438C 722.357,437.311 723.023,436.478 723.5,435.5C 707.5,426.5 691.5,417.5 675.5,408.5C 674.5,391.179 674.167,373.846 674.5,356.5C 675.873,356.343 677.207,356.51 678.5,357C 717.037,378.768 755.704,400.268 794.5,421.5C 795.667,466.83 795.833,512.163 795,557.5C 779.829,548.58 764.495,539.913 749,531.5C 748.667,513.5 748.333,495.5 748,477.5C 747.586,477.043 747.086,476.709 746.5,476.5C 726.757,487.12 707.257,498.12 688,509.5C 687.333,531.5 687.333,553.5 688,575.5C 689.507,576.535 691.007,576.368 692.5,575C 707.586,566.373 722.753,557.873 738,549.5C 752.799,558.209 767.799,566.543 783,574.5C 784.257,574.85 784.591,575.517 784,576.5C 745.419,597.873 706.919,619.373 668.5,641C 665.167,643 661.833,643 658.5,641C 620.672,620.254 583.005,599.254 545.5,578C 544.552,577.517 543.552,577.351 542.5,577.5C 542.281,576.325 542.614,575.325 543.5,574.5C 558.747,566.294 573.914,557.96 589,549.5C 605.247,558.373 621.414,567.373 637.5,576.5C 638.086,576.291 638.586,575.957 639,575.5C 639.667,553.5 639.667,531.5 639,509.5C 619.743,498.12 600.243,487.12 580.5,476.5C 579.914,476.709 579.414,477.043 579,477.5C 578.833,495.509 578.333,513.509 577.5,531.5C 562.661,540.087 547.661,548.42 532.5,556.5C 531.167,511.5 531.167,466.5 532.5,421.5C 571.52,400.327 610.187,378.66 648.5,356.5 Z"/></g>
<g><path style="opacity:0.998" fill="#417eb0" d="M 290.5,371.5 C 303.471,370.327 316.471,370.994 329.5,373.5C 329.291,374.922 328.791,376.255 328,377.5C 313.715,393.907 299.548,410.407 285.5,427C 290.351,427.174 295.018,427.674 299.5,428.5C 293.167,428.5 286.833,428.5 280.5,428.5C 270.341,427.67 260.008,427.17 249.5,427C 252.934,422.81 256.6,418.81 260.5,415C 263.5,414.667 266.5,414.333 269.5,414C 268.552,413.517 267.552,413.351 266.5,413.5C 274.006,411.533 277.339,406.533 276.5,398.5C 277.309,400.292 277.809,402.292 278,404.5C 278.369,401.123 278.369,397.79 278,394.5C 283.697,387.475 289.363,380.475 295,373.5C 296.067,372.809 297.234,372.309 298.5,372C 295.854,371.503 293.187,371.336 290.5,371.5 Z"/></g>
<g><path style="opacity:1" fill="#4786b9" d="M 290.5,371.5 C 293.187,371.336 295.854,371.503 298.5,372C 297.234,372.309 296.067,372.809 295,373.5C 289.363,380.475 283.697,387.475 278,394.5C 278.369,397.79 278.369,401.123 278,404.5C 277.809,402.292 277.309,400.292 276.5,398.5C 271.212,388.8 264.379,387.467 256,394.5C 251.64,405.11 255.14,411.443 266.5,413.5C 267.552,413.351 268.552,413.517 269.5,414C 266.5,414.333 263.5,414.667 260.5,415C 256.6,418.81 252.934,422.81 249.5,427C 260.008,427.17 270.341,427.67 280.5,428.5C 266.5,428.5 252.5,428.5 238.5,428.5C 238.333,417.162 238.5,405.828 239,394.5C 241.807,385.026 247.974,378.86 257.5,376C 268.306,373.051 279.306,371.551 290.5,371.5 Z"/></g>
<g><path style="opacity:1" fill="#3974a4" d="M 329.5,373.5 C 343.798,375.15 353.798,382.484 359.5,395.5C 359.631,396.239 359.464,396.906 359,397.5C 357.731,392.556 355.731,392.222 353,396.5C 325.5,428.667 298,460.833 270.5,493C 276.681,493.172 282.681,493.672 288.5,494.5C 280.981,494.175 273.648,494.508 266.5,495.5C 246.997,498.837 235.164,510.17 231,529.5C 230.5,540.161 230.333,550.828 230.5,561.5C 220.828,561.666 211.161,561.5 201.5,561C 198.562,560.304 195.896,559.138 193.5,557.5C 194.598,556.603 194.598,555.77 193.5,555C 226.737,516.519 259.737,477.853 292.5,439C 295.167,438.667 297.833,438.333 300.5,438C 291.173,437.5 281.839,437.334 272.5,437.5C 251.5,437.5 230.5,437.5 209.5,437.5C 239.329,436.502 269.329,436.169 299.5,436.5C 300.833,433.833 300.833,431.167 299.5,428.5C 295.018,427.674 290.351,427.174 285.5,427C 299.548,410.407 313.715,393.907 328,377.5C 328.791,376.255 329.291,374.922 329.5,373.5 Z"/></g>
<g><path style="opacity:1" fill="#356f9f" d="M 359.5,395.5 C 360.434,396.568 360.768,397.901 360.5,399.5C 360.666,408.839 360.5,418.173 360,427.5C 359.667,424.5 359.333,421.5 359,418.5C 337.458,443.039 316.292,467.873 295.5,493C 299.167,493.333 302.833,493.667 306.5,494C 300.509,494.499 294.509,494.666 288.5,494.5C 282.681,493.672 276.681,493.172 270.5,493C 298,460.833 325.5,428.667 353,396.5C 355.731,392.222 357.731,392.556 359,397.5C 359.464,396.906 359.631,396.239 359.5,395.5 Z"/></g>
<g><path style="opacity:0.061" fill="#1c384f" d="M 238.5,428.5 C 252.5,428.5 266.5,428.5 280.5,428.5C 286.833,428.5 293.167,428.5 299.5,428.5C 300.833,431.167 300.833,433.833 299.5,436.5C 299.5,434.167 299.5,431.833 299.5,429.5C 278.993,429.83 258.66,429.497 238.5,428.5 Z"/></g>
<g><path style="opacity:0.999" fill="#306998" d="M 360.5,399.5 C 361.663,422.996 361.83,446.663 361,470.5C 357.5,483.333 349.333,491.5 336.5,495C 313.169,495.5 289.836,495.667 266.5,495.5C 273.648,494.508 280.981,494.175 288.5,494.5C 294.509,494.666 300.509,494.499 306.5,494C 302.833,493.667 299.167,493.333 295.5,493C 316.292,467.873 337.458,443.039 359,418.5C 359.333,421.5 359.667,424.5 360,427.5C 360.5,418.173 360.666,408.839 360.5,399.5 Z"/></g>
<g><path style="opacity:0.999" fill="#4786b8" d="M 209.5,437.5 C 230.5,437.5 251.5,437.5 272.5,437.5C 271.432,438.434 270.099,438.768 268.5,438.5C 258.828,438.334 249.161,438.5 239.5,439C 218.215,463.74 197.048,488.574 176,513.5C 175.809,515.708 175.309,517.708 174.5,519.5C 170.829,499.492 172.329,479.825 179,460.5C 184.765,446.891 194.931,439.225 209.5,437.5 Z"/></g>
<g><path style="opacity:0.999" fill="#417fb1" d="M 268.5,438.5 C 239.482,472.845 210.149,506.845 180.5,540.5C 177.252,533.97 175.252,526.97 174.5,519.5C 175.309,517.708 175.809,515.708 176,513.5C 197.048,488.574 218.215,463.74 239.5,439C 249.161,438.5 258.828,438.334 268.5,438.5 Z"/></g>
<g><path style="opacity:1" fill="#3d7aab" d="M 272.5,437.5 C 281.839,437.334 291.173,437.5 300.5,438C 297.833,438.333 295.167,438.667 292.5,439C 259.737,477.853 226.737,516.519 193.5,555C 194.598,555.77 194.598,556.603 193.5,557.5C 187.281,553.28 182.948,547.614 180.5,540.5C 210.149,506.845 239.482,472.845 268.5,438.5C 270.099,438.768 271.432,438.434 272.5,437.5 Z"/></g>
<g><path style="opacity:1" fill="#f6df6b" d="M 414.5,448.5 C 413.504,448.586 412.671,448.252 412,447.5C 397.833,457.667 383.667,467.833 369.5,478C 368.552,478.483 367.552,478.649 366.5,478.5C 366.995,476.518 367.495,474.518 368,472.5C 368.178,460.591 368.678,448.758 369.5,437C 380.226,436.097 390.893,436.431 401.5,438C 407.444,439.623 411.777,443.123 414.5,448.5 Z"/></g>
<g><path style="opacity:0.999" fill="#fde266" d="M 414.5,448.5 C 417.258,451.678 419.258,455.345 420.5,459.5C 419.265,459.279 418.265,458.612 417.5,457.5C 359.028,498.806 300.694,540.306 242.5,582C 241.299,582.903 240.465,584.069 240,585.5C 239.501,590.489 239.334,595.489 239.5,600.5C 238.506,590.013 238.172,579.346 238.5,568.5C 239.29,569.609 239.79,570.942 240,572.5C 240.309,571.234 240.809,570.067 241.5,569C 273.516,545.957 305.182,523.79 336.5,502.5C 350.354,499.312 360.354,491.312 366.5,478.5C 367.552,478.649 368.552,478.483 369.5,478C 383.667,467.833 397.833,457.667 412,447.5C 412.671,448.252 413.504,448.586 414.5,448.5 Z"/></g>
<g><path style="opacity:1" fill="#fee160" d="M 420.5,459.5 C 422.106,462.986 423.106,466.653 423.5,470.5C 422.15,469.517 421.15,468.184 420.5,466.5C 360.833,509.167 301.167,551.833 241.5,594.5C 240.707,598.12 240.707,601.787 241.5,605.5C 240.069,604.22 239.402,602.553 239.5,600.5C 239.334,595.489 239.501,590.489 240,585.5C 240.465,584.069 241.299,582.903 242.5,582C 300.694,540.306 359.028,498.806 417.5,457.5C 418.265,458.612 419.265,459.279 420.5,459.5 Z"/></g>
<g><path style="opacity:1" fill="#fddd56" d="M 423.5,470.5 C 426.003,478.522 427.336,486.855 427.5,495.5C 426.037,492.797 425.204,489.797 425,486.5C 391.079,510.544 357.245,534.711 323.5,559C 315.425,560.103 307.425,560.937 299.5,561.5C 299.194,564.385 299.527,567.052 300.5,569.5C 321.007,569.17 341.34,569.503 361.5,570.5C 361.167,570.5 360.833,570.5 360.5,570.5C 340.164,570.333 319.831,570.5 299.5,571C 305.167,571.333 310.833,571.667 316.5,572C 295.833,586.667 275.167,601.333 254.5,616C 256.063,616.759 257.063,617.926 257.5,619.5C 250.604,616.603 245.271,611.936 241.5,605.5C 240.707,601.787 240.707,598.12 241.5,594.5C 301.167,551.833 360.833,509.167 420.5,466.5C 421.15,468.184 422.15,469.517 423.5,470.5 Z"/></g>
<g><path style="opacity:1" fill="#fdd849" d="M 427.5,495.5 C 428.624,502.335 428.291,509.002 426.5,515.5C 425.71,514.391 425.21,513.058 425,511.5C 402.254,527.79 379.421,543.956 356.5,560C 369.673,560.169 382.673,560.669 395.5,561.5C 363.5,561.5 331.5,561.5 299.5,561.5C 307.425,560.937 315.425,560.103 323.5,559C 357.245,534.711 391.079,510.544 425,486.5C 425.204,489.797 426.037,492.797 427.5,495.5 Z"/></g>
<g><path style="opacity:0.999" fill="#f9e36f" d="M 336.5,502.5 C 305.182,523.79 273.516,545.957 241.5,569C 240.809,570.067 240.309,571.234 240,572.5C 239.79,570.942 239.29,569.609 238.5,568.5C 238.333,554.829 238.5,541.163 239,527.5C 242.933,512.903 252.433,504.736 267.5,503C 290.498,502.5 313.498,502.333 336.5,502.5 Z"/></g>
<g><path style="opacity:1" fill="#fcd33e" d="M 426.5,515.5 C 424.822,528.367 420.655,540.367 414,551.5C 409.44,557.863 403.273,561.196 395.5,561.5C 382.673,560.669 369.673,560.169 356.5,560C 379.421,543.956 402.254,527.79 425,511.5C 425.21,513.058 425.71,514.391 426.5,515.5 Z"/></g>
<g><path style="opacity:0.141" fill="#63541d" d="M 299.5,561.5 C 331.5,561.5 363.5,561.5 395.5,561.5C 364.004,562.498 332.338,562.832 300.5,562.5C 300.5,564.833 300.5,567.167 300.5,569.5C 299.527,567.052 299.194,564.385 299.5,561.5 Z"/></g>
<g><path style="opacity:1" fill="#fcd543" d="M 360.5,570.5 C 352.612,575.035 344.945,580.035 337.5,585.5C 327.833,585.167 323.167,589.833 323.5,599.5C 322.691,597.708 322.191,595.708 322,593.5C 320.619,597.221 318.119,600.054 314.5,602C 303.991,609.088 293.658,616.421 283.5,624C 281.389,624.845 279.389,625.678 277.5,626.5C 270.211,625.686 263.544,623.352 257.5,619.5C 257.063,617.926 256.063,616.759 254.5,616C 275.167,601.333 295.833,586.667 316.5,572C 310.833,571.667 305.167,571.333 299.5,571C 319.831,570.5 340.164,570.333 360.5,570.5 Z"/></g>
<g><path style="opacity:1" fill="#f8cf3a" d="M 360.5,570.5 C 360.833,570.5 361.167,570.5 361.5,570.5C 361.666,580.172 361.5,589.839 361,599.5C 358.767,606.73 354.601,612.563 348.5,617C 325.909,629.014 302.242,632.181 277.5,626.5C 279.389,625.678 281.389,624.845 283.5,624C 293.658,616.421 303.991,609.088 314.5,602C 318.119,600.054 320.619,597.221 322,593.5C 322.191,595.708 322.691,597.708 323.5,599.5C 326.532,607.685 332.199,610.185 340.5,607C 345.153,603.212 346.653,598.378 345,592.5C 343.258,589.254 340.758,586.921 337.5,585.5C 344.945,580.035 352.612,575.035 360.5,570.5 Z"/></g>
<g><path style="opacity:1" fill="#f72942" d="M 797.5,710.5 C 797.427,712.027 798.094,713.027 799.5,713.5C 800.167,713.5 800.5,713.833 800.5,714.5C 800.427,716.027 801.094,717.027 802.5,717.5C 804.341,719.849 805.674,722.515 806.5,725.5C 806.88,729.823 807.214,734.156 807.5,738.5C 806.666,743.496 805.999,748.496 805.5,753.5C 802.32,762.172 796.653,768.338 788.5,772C 784.375,765.584 780.375,759.084 776.5,752.5C 787.443,742.451 787.11,732.951 775.5,724C 765.526,720.77 758.36,723.937 754,733.5C 752.497,741.158 754.663,747.491 760.5,752.5C 757.072,759.105 753.405,765.605 749.5,772C 739.416,767.396 733.083,759.563 730.5,748.5C 730.344,740.471 730.677,732.471 731.5,724.5C 740.171,704.325 755.504,695.825 777.5,699C 785.309,701.064 791.976,704.898 797.5,710.5 Z"/></g>
<g><path style="opacity:0.631" fill="#7d1522" d="M 797.5,710.5 C 798.906,710.973 799.573,711.973 799.5,713.5C 798.094,713.027 797.427,712.027 797.5,710.5 Z"/></g>
<g><path style="opacity:0.463" fill="#7d1522" d="M 800.5,714.5 C 801.906,714.973 802.573,715.973 802.5,717.5C 801.094,717.027 800.427,716.027 800.5,714.5 Z"/></g>
<g><path style="opacity:0.019" fill="#000000" d="M 81.5,720.5 C 82.5862,720.62 83.2528,721.287 83.5,722.5C 82.7506,724.241 82.4173,725.908 82.5,727.5C 81.5258,725.257 81.1924,722.924 81.5,720.5 Z"/></g>
<g><path style="opacity:0.948" fill="#232d3c" d="M 105.5,721.5 C 111.577,721.196 117.577,721.696 123.5,723C 130.351,725.862 133.851,731.029 134,738.5C 134.333,747.833 134.667,757.167 135,766.5C 136.309,768.747 136.975,771.08 137,773.5C 131.088,779.531 126.754,778.531 124,770.5C 116.146,778.705 106.979,780.538 96.5,776C 87.5479,767.362 87.2145,758.362 95.5,749C 104.113,744.111 113.113,743.278 122.5,746.5C 125.218,736.231 121.385,730.898 111,730.5C 104.947,731.01 99.1133,732.343 93.5,734.5C 93.3359,731.813 93.5026,729.146 94,726.5C 97.6882,724.332 101.522,722.666 105.5,721.5 Z M 111.5,752.5 C 115.142,753.08 118.809,753.58 122.5,754C 123.303,765.85 117.636,770.85 105.5,769C 103.667,768.5 102.5,767.333 102,765.5C 100.432,757.581 103.599,753.248 111.5,752.5 Z"/></g>
<g><path style="opacity:0.977" fill="#232d3c" d="M 230.5,721.5 C 239.326,720.187 247.326,722.02 254.5,727C 253.594,728.699 253.261,730.533 253.5,732.5C 251.011,732.702 248.677,732.202 246.5,731C 241.5,730.333 236.5,730.333 231.5,731C 226.586,734.171 226.253,737.837 230.5,742C 236.771,744.485 243.105,746.818 249.5,749C 251.667,750.5 253.5,752.333 255,754.5C 258.907,767.128 254.074,774.962 240.5,778C 234.461,778.573 228.461,778.239 222.5,777C 217.105,775.507 215.105,772.007 216.5,766.5C 222.205,768.049 228.038,769.049 234,769.5C 237.258,769.507 240.425,769.007 243.5,768C 246.936,764.94 247.269,761.607 244.5,758C 237.567,755.134 230.567,752.467 223.5,750C 214.167,741.667 214.167,733.333 223.5,725C 226.174,724.33 228.507,723.163 230.5,721.5 Z"/></g>
<g><path style="opacity:0.986" fill="#232d3b" d="M 139.5,722.5 C 142.518,722.335 145.518,722.502 148.5,723C 149,723.5 149.5,724 150,724.5C 153.642,737.069 156.976,749.736 160,762.5C 163.498,751.028 166.498,739.362 169,727.5C 169.273,725.671 170.107,724.171 171.5,723C 175.317,721.977 178.817,722.477 182,724.5C 184.857,737.262 188.024,749.929 191.5,762.5C 194.997,749.845 198.497,737.178 202,724.5C 205.998,721.681 209.831,721.848 213.5,725C 208.207,741.879 202.707,758.712 197,775.5C 195.352,777.028 193.352,777.695 191,777.5C 188.648,777.695 186.648,777.028 185,775.5C 182,762.833 179,750.167 176,737.5C 172.598,749.941 169.431,762.441 166.5,775C 166.095,775.945 165.428,776.612 164.5,777C 159.222,778.726 155.388,777.226 153,772.5C 148.464,756.394 143.631,740.394 138.5,724.5C 138.863,723.817 139.196,723.15 139.5,722.5 Z"/></g>
<g><path style="opacity:0.011" fill="#000000" d="M 83.5,792.5 C 82.5655,793.568 82.2322,794.901 82.5,796.5C 82.5,797.167 82.8333,797.5 83.5,797.5C 83.8134,800.247 83.48,802.914 82.5,805.5C 81.1667,779.833 81.1667,754.167 82.5,728.5C 82.8333,728.667 83.1667,728.833 83.5,729C 83.15,748.973 83.15,770.139 83.5,792.5 Z"/></g>
<g><path style="opacity:0.948" fill="#b41e30" d="M 731.5,724.5 C 730.677,732.471 730.344,740.471 730.5,748.5C 727.775,740.403 728.108,732.403 731.5,724.5 Z"/></g>
<g><path style="opacity:1" fill="#b41f30" d="M 806.5,725.5 C 808.444,732.25 808.944,739.25 808,746.5C 807.61,749.104 806.776,751.438 805.5,753.5C 805.999,748.496 806.666,743.496 807.5,738.5C 807.214,734.156 806.88,729.823 806.5,725.5 Z"/></g>
<g><path style="opacity:1" fill="#86d364" d="M 711.5,810.5 C 710.414,810.62 709.747,811.287 709.5,812.5C 709.801,814.422 710.467,816.088 711.5,817.5C 716.462,827.544 724.129,830.377 734.5,826C 736.734,823.937 738.734,821.771 740.5,819.5C 741.117,819.389 741.617,819.056 742,818.5C 742.236,816.236 742.736,814.069 743.5,812C 750.826,811.5 758.159,811.334 765.5,811.5C 764.756,815.119 764.423,818.785 764.5,822.5C 761.325,835.844 753.325,845.01 740.5,850C 715.535,856.683 698.202,848.183 688.5,824.5C 688.5,823.167 688.5,821.833 688.5,820.5C 687.349,813.89 687.349,807.223 688.5,800.5C 694.985,782.912 707.651,773.578 726.5,772.5C 731.245,772.882 735.912,773.716 740.5,775C 742.813,775.641 744.48,776.974 745.5,779C 742.016,785.157 738.516,791.323 735,797.5C 729.526,797.057 724.026,797.557 718.5,799C 714.233,801.745 711.899,805.578 711.5,810.5 Z"/></g>
<g><path style="opacity:1" fill="#1289f7" d="M 847.5,793.5 C 847.66,795.153 848.326,796.486 849.5,797.5C 850.404,798.209 850.737,799.209 850.5,800.5C 850.157,802.483 850.824,803.817 852.5,804.5C 855.072,824.729 847.405,839.563 829.5,849C 822.747,851.65 815.747,852.817 808.5,852.5C 808.389,851.883 808.056,851.383 807.5,851C 802.982,850.204 798.649,848.871 794.5,847C 792.391,843.727 789.391,841.894 785.5,841.5C 784.5,841.167 783.833,840.5 783.5,839.5C 784.658,838.05 784.158,837.05 782,836.5C 781.668,833.457 780.168,831.457 777.5,830.5C 772.73,822.682 771.397,814.349 773.5,805.5C 774.924,803.485 775.59,801.152 775.5,798.5C 778.255,789.577 783.755,782.911 792,778.5C 795.816,782.116 798.649,786.449 800.5,791.5C 800.427,793.027 801.094,794.027 802.5,794.5C 804.113,795.838 804.613,797.505 804,799.5C 801.932,801.396 800.099,803.396 798.5,805.5C 797.883,805.611 797.383,805.944 797,806.5C 796.333,810.5 796.333,814.5 797,818.5C 797.383,819.056 797.883,819.389 798.5,819.5C 803.974,827.436 811.308,829.602 820.5,826C 823.094,823.914 825.094,821.414 826.5,818.5C 830.445,813.961 830.445,809.295 826.5,804.5C 823.985,802.818 821.985,800.652 820.5,798C 824.367,791.101 828.367,784.267 832.5,777.5C 838.904,781.569 843.904,786.902 847.5,793.5 Z"/></g>
<g><path style="opacity:0.886" fill="#b77000" d="M 261.5,790.5 C 254.5,790.5 247.5,790.5 240.5,790.5C 247.5,787.833 254.5,787.833 261.5,790.5 Z"/></g>
<g><path style="opacity:1" fill="#ee9101" d="M 240.5,790.5 C 247.5,790.5 254.5,790.5 261.5,790.5C 261.833,790.5 262.167,790.5 262.5,790.5C 263.69,795.477 263.69,800.477 262.5,805.5C 261.583,810.751 259.417,815.418 256,819.5C 254.871,821.141 253.371,822.141 251.5,822.5C 250.566,821.432 250.232,820.099 250.5,818.5C 250.595,816.214 251.262,814.214 252.5,812.5C 254.13,810.974 254.963,808.974 255,806.5C 255.667,803.5 255.667,800.5 255,797.5C 253.301,796.594 251.467,796.261 249.5,796.5C 247.167,796.5 244.833,796.5 242.5,796.5C 238.298,796.817 234.298,796.483 230.5,795.5C 232.992,792.325 236.326,790.659 240.5,790.5 Z"/></g>
<g><path style="opacity:0.216" fill="#132a3e" d="M 800.5,791.5 C 801.906,791.973 802.573,792.973 802.5,794.5C 801.094,794.027 800.427,793.027 800.5,791.5 Z"/></g>
<g><path style="opacity:0.998" fill="#f29200" d="M 83.5,792.5 C 107.82,805.66 133.82,813.493 161.5,816C 190.561,818.018 218.394,813.185 245,801.5C 248.349,802.741 249.182,804.908 247.5,808C 206.143,833.833 162.81,837.5 117.5,819C 105.294,813.072 93.9606,805.905 83.5,797.5C 82.8333,797.5 82.5,797.167 82.5,796.5C 82.2322,794.901 82.5655,793.568 83.5,792.5 Z"/></g>
<g><path style="opacity:0.008" fill="#0e314a" d="M 847.5,793.5 C 849.104,794.287 849.771,795.62 849.5,797.5C 848.326,796.486 847.66,795.153 847.5,793.5 Z"/></g>
<g><path style="opacity:0.827" fill="#895403" d="M 230.5,795.5 C 234.298,796.483 238.298,796.817 242.5,796.5C 239.335,797.322 236.002,797.989 232.5,798.5C 229.927,798.314 229.26,797.314 230.5,795.5 Z"/></g>
<g><path style="opacity:0.51" fill="#27849f" d="M 465.5,801.5 C 480.837,801.333 496.17,801.5 511.5,802C 513.141,803.129 514.141,804.629 514.5,806.5C 513.038,805.542 511.705,804.376 510.5,803C 495.994,802.173 481.661,802.339 467.5,803.5C 466.5,803.167 465.833,802.5 465.5,801.5 Z"/></g>
<g><path style="opacity:0.427" fill="#764702" d="M 262.5,790.5 C 263.117,790.611 263.617,790.944 264,791.5C 264.167,793.333 264.333,795.167 264.5,797C 264.64,800.15 263.973,802.983 262.5,805.5C 263.69,800.477 263.69,795.477 262.5,790.5 Z"/></g>
<g><path style="opacity:0.541" fill="#14436d" d="M 850.5,800.5 C 851.345,801.671 852.011,803.005 852.5,804.5C 850.824,803.817 850.157,802.483 850.5,800.5 Z"/></g>
<g><path style="opacity:0.502" fill="#0f528d" d="M 775.5,798.5 C 775.59,801.152 774.924,803.485 773.5,805.5C 773.171,802.772 773.837,800.438 775.5,798.5 Z"/></g>
<g><path style="opacity:0.004" fill="#000000" d="M 81.5,806.5 C 82.8333,807.167 82.8333,807.167 81.5,806.5 Z"/></g>
<g><path style="opacity:0.063" fill="#764805" d="M 249.5,796.5 C 251.467,796.261 253.301,796.594 255,797.5C 255.667,800.5 255.667,803.5 255,806.5C 254.963,808.974 254.13,810.974 252.5,812.5C 253.977,807.929 254.477,803.262 254,798.5C 252.378,797.901 250.878,797.234 249.5,796.5 Z"/></g>
<g><path style="opacity:1" fill="#3ac5f1" d="M 514.5,806.5 C 515.899,809.699 516.899,813.032 517.5,816.5C 514.823,819.169 511.823,821.502 508.5,823.5C 500.647,826.586 492.647,829.419 484.5,832C 482.635,832.964 480.968,834.131 479.5,835.5C 476.08,824.567 472.08,813.901 467.5,803.5C 481.661,802.339 495.994,802.173 510.5,803C 511.705,804.376 513.038,805.542 514.5,806.5 Z"/></g>
<g><path style="opacity:1" fill="#0f4885" d="M 465.5,801.5 C 465.833,802.5 466.5,803.167 467.5,803.5C 472.08,813.901 476.08,824.567 479.5,835.5C 482.572,843.717 485.239,852.05 487.5,860.5C 486.768,859.192 485.934,857.858 485,856.5C 484.275,859.79 483.108,862.79 481.5,865.5C 480.828,862.29 479.828,859.124 478.5,856C 478.892,854.989 479.559,854.489 480.5,854.5C 475.072,842.277 469.072,830.444 462.5,819C 460.608,818.027 458.608,817.36 456.5,817C 455.95,814.842 454.95,814.342 453.5,815.5C 454.447,810.479 456.447,805.979 459.5,802C 461.473,801.505 463.473,801.338 465.5,801.5 Z"/></g>
<g><path style="opacity:0.012" fill="#5d9145" d="M 764.5,822.5 C 764.423,818.785 764.756,815.119 765.5,811.5C 758.159,811.334 750.826,811.5 743.5,812C 742.736,814.069 742.236,816.236 742,818.5C 741.617,819.056 741.117,819.389 740.5,819.5C 741.008,816.611 741.675,813.778 742.5,811C 750.493,810.5 758.493,810.334 766.5,810.5C 766.656,814.764 765.989,818.764 764.5,822.5 Z"/></g>
<g><path style="opacity:0.753" fill="#649d4a" d="M 688.5,800.5 C 687.349,807.223 687.349,813.89 688.5,820.5C 687.833,820.5 687.167,820.5 686.5,820.5C 686.334,815.156 686.501,809.823 687,804.5C 687.21,802.942 687.71,801.609 688.5,800.5 Z"/></g>
<g><path style="opacity:0.114" fill="#155ca2" d="M 798.5,805.5 C 797.167,810.167 797.167,814.833 798.5,819.5C 797.883,819.389 797.383,819.056 797,818.5C 796.333,814.5 796.333,810.5 797,806.5C 797.383,805.944 797.883,805.611 798.5,805.5 Z"/></g>
<g><path style="opacity:0.635" fill="#486f37" d="M 711.5,810.5 C 710.933,812.698 710.933,815.031 711.5,817.5C 710.467,816.088 709.801,814.422 709.5,812.5C 709.747,811.287 710.414,810.62 711.5,810.5 Z"/></g>
<g><path style="opacity:0.075" fill="#19528f" d="M 826.5,804.5 C 830.445,809.295 830.445,813.961 826.5,818.5C 827.709,813.879 827.709,809.213 826.5,804.5 Z"/></g>
<g><path style="opacity:0.8" fill="#8d5702" d="M 250.5,818.5 C 250.232,820.099 250.566,821.432 251.5,822.5C 250.257,823.737 249.257,823.404 248.5,821.5C 248.942,820.261 249.609,819.261 250.5,818.5 Z"/></g>
<g><path style="opacity:0.012" fill="#304b25" d="M 686.5,820.5 C 687.167,820.5 687.833,820.5 688.5,820.5C 688.5,821.833 688.5,823.167 688.5,824.5C 687.655,823.329 686.989,821.995 686.5,820.5 Z"/></g>
<g><path style="opacity:0.999" fill="#0d5297" d="M 481.5,865.5 C 481.074,869.902 479.74,873.902 477.5,877.5C 477.671,874.203 477.005,873.869 475.5,876.5C 463.336,871.662 451.169,866.995 439,862.5C 438.392,864.066 437.558,865.4 436.5,866.5C 441.89,849.392 447.556,832.392 453.5,815.5C 454.95,814.342 455.95,814.842 456.5,817C 458.608,817.36 460.608,818.027 462.5,819C 469.072,830.444 475.072,842.277 480.5,854.5C 479.559,854.489 478.892,854.989 478.5,856C 479.828,859.124 480.828,862.29 481.5,865.5 Z"/></g>
<g><path style="opacity:0.62" fill="#1f6884" d="M 521.5,828.5 C 523.074,830.102 523.741,832.102 523.5,834.5C 521.926,832.898 521.259,830.898 521.5,828.5 Z"/></g>
<g><path style="opacity:0.925" fill="#1a60a4" d="M 777.5,830.5 C 780.168,831.457 781.668,833.457 782,836.5C 784.158,837.05 784.658,838.05 783.5,839.5C 780.723,837.049 778.723,834.049 777.5,830.5 Z"/></g>
<g><path style="opacity:1" fill="#36b9ed" d="M 517.5,816.5 C 519.405,820.216 520.739,824.216 521.5,828.5C 521.259,830.898 521.926,832.898 523.5,834.5C 523.336,837.187 523.503,839.854 524,842.5C 524.889,841.112 525.389,841.278 525.5,843C 525.355,843.772 525.022,844.439 524.5,845C 513.378,849.895 502.045,854.228 490.5,858C 489.922,859.417 488.922,860.25 487.5,860.5C 485.239,852.05 482.572,843.717 479.5,835.5C 480.968,834.131 482.635,832.964 484.5,832C 492.647,829.419 500.647,826.586 508.5,823.5C 511.823,821.502 514.823,819.169 517.5,816.5 Z"/></g>
<g><path style="opacity:1" fill="#32aee5" d="M 523.5,834.5 C 526.408,840.106 528.408,846.106 529.5,852.5C 530.054,855.562 530.554,858.562 531,861.5C 530.667,860.833 530.333,860.167 530,859.5C 517.33,864.418 504.83,869.751 492.5,875.5C 490.081,870.853 488.414,865.853 487.5,860.5C 488.922,860.25 489.922,859.417 490.5,858C 502.045,854.228 513.378,849.895 524.5,845C 525.022,844.439 525.355,843.772 525.5,843C 525.389,841.278 524.889,841.112 524,842.5C 523.503,839.854 523.336,837.187 523.5,834.5 Z"/></g>
<g><path style="opacity:1" fill="#116cbd" d="M 785.5,841.5 C 789.391,841.894 792.391,843.727 794.5,847C 798.649,848.871 802.982,850.204 807.5,851C 808.056,851.383 808.389,851.883 808.5,852.5C 799.523,851.3 791.857,847.634 785.5,841.5 Z"/></g>
<g><path style="opacity:1" fill="#2fa5e4" d="M 529.5,852.5 C 533.098,860.858 536.098,869.525 538.5,878.5C 538.56,881.341 539.226,884.007 540.5,886.5C 527.975,889.968 514.975,894.634 501.5,900.5C 499.697,895.089 497.697,889.756 495.5,884.5C 495.737,883.209 495.404,882.209 494.5,881.5C 493.262,879.786 492.595,877.786 492.5,875.5C 504.83,869.751 517.33,864.418 530,859.5C 530.333,860.167 530.667,860.833 531,861.5C 530.554,858.562 530.054,855.562 529.5,852.5 Z"/></g>
<g><path style="opacity:1" fill="#0a5ca7" d="M 477.5,877.5 C 477.567,878.959 477.234,880.292 476.5,881.5C 475.596,882.209 475.263,883.209 475.5,884.5C 468.825,884.334 462.158,884.5 455.5,885C 454.978,885.561 454.645,886.228 454.5,887C 459.403,892.73 464.403,898.23 469.5,903.5C 468.87,905.75 467.87,907.75 466.5,909.5C 466.439,907.408 465.439,905.908 463.5,905C 452.223,901.183 440.889,897.683 429.5,894.5C 429.649,893.448 429.483,892.448 429,891.5C 428.8,893.32 427.966,894.653 426.5,895.5C 429.463,885.609 432.796,875.943 436.5,866.5C 437.558,865.4 438.392,864.066 439,862.5C 451.169,866.995 463.336,871.662 475.5,876.5C 477.005,873.869 477.671,874.203 477.5,877.5 Z"/></g>
<g><path style="opacity:0.765" fill="#195578" d="M 538.5,878.5 C 539.871,880.936 540.871,883.603 541.5,886.5C 541.167,886.5 540.833,886.5 540.5,886.5C 539.226,884.007 538.56,881.341 538.5,878.5 Z"/></g>
<g><path style="opacity:0.196" fill="#012038" d="M 476.5,881.5 C 479.087,882.816 482.087,883.483 485.5,883.5C 488.913,883.483 491.913,882.816 494.5,881.5C 495.404,882.209 495.737,883.209 495.5,884.5C 488.833,884.5 482.167,884.5 475.5,884.5C 475.263,883.209 475.596,882.209 476.5,881.5 Z"/></g>
<g><path style="opacity:1" fill="#0074ce" d="M 475.5,884.5 C 482.167,884.5 488.833,884.5 495.5,884.5C 497.697,889.756 499.697,895.089 501.5,900.5C 502.969,905.574 504.636,910.574 506.5,915.5C 510.646,924.887 507.646,929.22 497.5,928.5C 490.536,923.203 484.202,917.203 478.5,910.5C 477.415,908.413 475.749,907.08 473.5,906.5C 472.167,905.5 470.833,904.5 469.5,903.5C 464.403,898.23 459.403,892.73 454.5,887C 454.645,886.228 454.978,885.561 455.5,885C 462.158,884.5 468.825,884.334 475.5,884.5 Z"/></g>
<g><path style="opacity:1" fill="#2c9ee2" d="M 540.5,886.5 C 540.833,886.5 541.167,886.5 541.5,886.5C 542.566,888.701 543.233,891.035 543.5,893.5C 543.366,895.292 543.699,896.958 544.5,898.5C 532.372,902.734 520.372,907.234 508.5,912C 507.915,913.302 507.249,914.469 506.5,915.5C 504.636,910.574 502.969,905.574 501.5,900.5C 514.975,894.634 527.975,889.968 540.5,886.5 Z"/></g>
<g><path style="opacity:1" fill="#0761ae" d="M 466.5,909.5 C 465.317,914.897 463.817,920.23 462,925.5C 460.833,926.667 459.667,927.833 458.5,929C 446.167,929.667 433.833,929.667 421.5,929C 419.125,927.462 417.792,925.295 417.5,922.5C 420.237,913.371 423.237,904.371 426.5,895.5C 427.966,894.653 428.8,893.32 429,891.5C 429.483,892.448 429.649,893.448 429.5,894.5C 440.889,897.683 452.223,901.183 463.5,905C 465.439,905.908 466.439,907.408 466.5,909.5 Z"/></g>
<g><path style="opacity:0.059" fill="#134665" d="M 543.5,893.5 C 545.02,895.89 546.02,898.557 546.5,901.5C 545.599,900.71 544.932,899.71 544.5,898.5C 543.699,896.958 543.366,895.292 543.5,893.5 Z"/></g>
<g><path style="opacity:1" fill="#2893db" d="M 544.5,898.5 C 544.932,899.71 545.599,900.71 546.5,901.5C 549.814,909.263 551.981,917.263 553,925.5C 551.833,926.667 550.667,927.833 549.5,929C 531.995,929.829 514.662,929.662 497.5,928.5C 507.646,929.22 510.646,924.887 506.5,915.5C 507.249,914.469 507.915,913.302 508.5,912C 520.372,907.234 532.372,902.734 544.5,898.5 Z"/></g>
<g><path style="opacity:0.647" fill="#033c69" d="M 473.5,906.5 C 475.749,907.08 477.415,908.413 478.5,910.5C 476.251,909.92 474.585,908.587 473.5,906.5 Z"/></g>
</svg>
